<svg width="18" height="18" viewBox="0 0 18 18" fill="none" xmlns="http://www.w3.org/2000/svg">
<path d="M8.39115 1.69908C8.58677 1.30278 8.68458 1.10462 8.81736 1.04131C8.93289 0.986229 9.06711 0.986229 9.18264 1.04131C9.31542 1.10462 9.41323 1.30278 9.60885 1.69908L11.4648 5.45895C11.5225 5.57595 11.5514 5.63445 11.5936 5.67987C11.631 5.72008 11.6758 5.75267 11.7255 5.77581C11.7818 5.80196 11.8463 5.81139 11.9754 5.83026L16.1268 6.43705C16.564 6.50095 16.7825 6.5329 16.8837 6.63967C16.9717 6.73257 17.0131 6.86022 16.9963 6.98709C16.9771 7.1329 16.8188 7.28704 16.5024 7.5953L13.4995 10.5201C13.4059 10.6112 13.3591 10.6568 13.3289 10.7111C13.3022 10.7591 13.285 10.8119 13.2784 10.8664C13.2709 10.9281 13.282 10.9925 13.304 11.1212L14.0126 15.2524C14.0873 15.6881 14.1247 15.9059 14.0545 16.0352C13.9934 16.1477 13.8848 16.2266 13.7589 16.2499C13.6142 16.2767 13.4186 16.1739 13.0273 15.9681L9.31604 14.0164C9.2004 13.9555 9.14258 13.9251 9.08167 13.9132C9.02774 13.9026 8.97226 13.9026 8.91833 13.9132C8.85742 13.9251 8.7996 13.9555 8.68397 14.0164L4.97268 15.9681C4.5814 16.1739 4.38577 16.2767 4.24111 16.2499C4.11525 16.2266 4.00665 16.1477 3.94555 16.0352C3.87533 15.9059 3.91269 15.6881 3.98742 15.2524L4.69596 11.1212C4.71805 10.9925 4.72909 10.9281 4.72162 10.8664C4.715 10.8119 4.69785 10.7591 4.67111 10.7111C4.6409 10.6568 4.5941 10.6112 4.50049 10.5201L1.49765 7.5953C1.18116 7.28704 1.02291 7.1329 1.00366 6.98709C0.986902 6.86022 1.02829 6.73257 1.1163 6.63967C1.21746 6.5329 1.43604 6.50095 1.8732 6.43705L6.02459 5.83026C6.15369 5.81139 6.21824 5.80196 6.27446 5.77581C6.32423 5.75267 6.36905 5.72008 6.40641 5.67987C6.44861 5.63445 6.47749 5.57595 6.53524 5.45895L8.39115 1.69908Z" stroke="#1C66FF" stroke-width="2" stroke-linecap="round" stroke-linejoin="round"/>
</svg>
