<svg width="18" height="17" viewBox="0 0 18 17" fill="none" xmlns="http://www.w3.org/2000/svg">
<path d="M9.8 4.2L8.90757 2.41513C8.65072 1.90144 8.52229 1.64458 8.3307 1.45693C8.16126 1.29098 7.95706 1.16478 7.73286 1.08745C7.47933 1 7.19217 1 6.61783 1H3.56C2.66392 1 2.21587 1 1.87362 1.17439C1.57256 1.32779 1.32779 1.57256 1.17439 1.87362C1 2.21587 1 2.66392 1 3.56V4.2M1 4.2H13.16C14.5041 4.2 15.1762 4.2 15.6896 4.46158C16.1412 4.69168 16.5083 5.05883 16.7384 5.51042C17 6.02381 17 6.69587 17 8.04V11.56C17 12.9041 17 13.5762 16.7384 14.0896C16.5083 14.5412 16.1412 14.9083 15.6896 15.1384C15.1762 15.4 14.5041 15.4 13.16 15.4H4.84C3.49587 15.4 2.82381 15.4 2.31042 15.1384C1.85883 14.9083 1.49168 14.5412 1.26158 14.0896C1 13.5762 1 12.9041 1 11.56V4.2Z" stroke="#1C66FF" stroke-width="2" stroke-linecap="round" stroke-linejoin="round"/>
</svg>
