<svg width="18" height="18" viewBox="0 0 18 18" fill="none" xmlns="http://www.w3.org/2000/svg">
<path d="M5.27051 13.5836H12.1033M7.84793 1.42462L2.05515 5.93011C1.66793 6.23128 1.47431 6.38187 1.33483 6.57046C1.21128 6.73751 1.11923 6.9257 1.06323 7.12579C1 7.35167 1 7.59695 1 8.08751V14.2669C1 15.2236 1 15.7019 1.18618 16.0673C1.34995 16.3887 1.61128 16.65 1.93269 16.8138C2.2981 17 2.77644 17 3.73312 17H13.6407C14.5974 17 15.0757 17 15.4411 16.8138C15.7626 16.65 16.0239 16.3887 16.1876 16.0673C16.3738 15.7019 16.3738 15.2236 16.3738 14.2669V8.08751C16.3738 7.59695 16.3738 7.35167 16.3106 7.12579C16.2546 6.9257 16.1626 6.73751 16.039 6.57046C15.8995 6.38187 15.7059 6.23129 15.3187 5.93011L9.5259 1.42462C9.22583 1.19123 9.0758 1.07454 8.91013 1.02968C8.76395 0.990105 8.60988 0.990105 8.4637 1.02968C8.29803 1.07454 8.14799 1.19123 7.84793 1.42462Z" stroke="#1C66FF" stroke-width="2" stroke-linecap="round" stroke-linejoin="round"/>
</svg>
