<svg width="25" height="24" viewBox="0 0 25 24" fill="none" xmlns="http://www.w3.org/2000/svg">
<path d="M19.8143 19.5861H13.1919M4.5 20L9.09366 18.2332C9.38748 18.1202 9.53439 18.0637 9.67184 17.9899C9.79392 17.9244 9.91031 17.8487 10.0198 17.7638C10.143 17.6682 10.2543 17.5569 10.4769 17.3343L19.8142 7.99696C20.7286 7.0826 20.7286 5.60013 19.8142 4.68577C18.8999 3.77141 17.4174 3.77141 16.5031 4.68577L7.16574 14.0231C6.94314 14.2457 6.83184 14.357 6.7362 14.4802C6.65125 14.5897 6.57562 14.7061 6.51008 14.8282C6.4363 14.9656 6.3798 15.1125 6.26679 15.4063L4.5 20ZM4.5 20L6.2037 15.5704C6.32562 15.2534 6.38658 15.095 6.49113 15.0224C6.5825 14.9589 6.69557 14.9349 6.80483 14.9558C6.92986 14.9797 7.04993 15.0997 7.29007 15.3399L9.16014 17.21C9.40028 17.4501 9.52035 17.5702 9.54423 17.6952C9.5651 17.8045 9.5411 17.9175 9.47766 18.0089C9.40506 18.1134 9.24657 18.1744 8.9296 18.2963L4.5 20Z" stroke="#737D86" stroke-width="2" stroke-linecap="round" stroke-linejoin="round"/>
</svg>
