<svg width="16" height="18" viewBox="0 0 16 18" fill="none" xmlns="http://www.w3.org/2000/svg">
<path d="M13.8 7.4V4.84C13.8 3.49587 13.8 2.82381 13.5384 2.31042C13.3083 1.85883 12.9412 1.49168 12.4896 1.26158C11.9762 1 11.3041 1 9.96 1H4.84C3.49587 1 2.82381 1 2.31042 1.26158C1.85883 1.49168 1.49168 1.85883 1.26158 2.31042C1 2.82381 1 3.49587 1 4.84V13.16C1 14.5041 1 15.1762 1.26158 15.6896C1.49168 16.1412 1.85883 16.5083 2.31042 16.7384C2.82381 17 3.49587 17 4.84 17H7.4M7.8 8.2H4.2M5 11.4H4.2M10.6 5H4.2M11.3978 11.2645C10.758 10.5373 9.69112 10.3417 8.8895 11.0076C8.08789 11.6735 7.97503 12.7868 8.60454 13.5743C9.23406 14.3619 11.3978 16.2 11.3978 16.2C11.3978 16.2 13.5616 14.3619 14.1911 13.5743C14.8206 12.7868 14.7215 11.6664 13.9061 11.0076C13.0907 10.3487 12.0376 10.5373 11.3978 11.2645Z" stroke="#1C66FF" stroke-width="2" stroke-linecap="round" stroke-linejoin="round"/>
</svg>
